:SAMPLES-PER-SECOND 30
:FRAME-RANGE 1-2643
:FULLY-SPECIFIED
:DEGREES
2396
root  21.384 39.6722 -58.9393 0.348633 -48.6953 -2.5605
RightUpLeg  10.8386 -10.829 -4.23388
RightLeg  6.45473 -25.8226 3.63088
RightFoot  -11.7493 -0.0391164 11.4643
RightToes  7.56698e-010 0 -3.6325e-017
Spine  10.6499 0.848223 6.68377
Spine1  -0.714315 2.43981 -5.5282
HEad  -22.4016 44.7064 -22.3929
LeftShoulder1  1.2801 0.269602 -33.5146
LeftArm  8.19482 3.51993 -28.3957
LeftForeArm  4.72391 -2.44224 -17.963
LeftHand  0.122311 1.33311 -3.76568
RightShoulder  7.41946 12.0921 41.3855
RightArm  2.3219 3.27296 12.8554
RightForeArm  15.1565 5.43817 14.806
RightHand  0.427016 5.66307 4.15187
LeftUpLeg  -19.1487 22.8472 -6.92294
LeftLeg  13.8868 2.71594 -0.237546
LeftFoot  -4.15492 0.597826 -9.11084
LeftToes  1.48244e-010 1.61973e-010 3.308e-011
2397
root  20.386 39.5256 -58.4422 -0.103516 -47.0901 -2.62115
RightUpLeg  13.9494 -10.5768 -3.90599
RightLeg  5.25634 -27.1311 4.23822
RightFoot  -12.7846 0.0738224 12.7309
RightToes  7.56698e-010 0 -3.6325e-017
Spine  9.39617 0.868143 6.21859
Spine1  0.325662 2.50831 -5.87105
HEad  -21.6765 44.0518 -20.6881
LeftShoulder1  1.24478 0.332013 -33.1815
LeftArm  9.98685 6.29664 -25.7809
LeftForeArm  1.86765 -1.64147 -18.4943
LeftHand  0.149445 1.38145 -4.61756
RightShoulder  7.39498 12.0927 41.2362
RightArm  2.80793 3.28873 12.7823
RightForeArm  13.283 6.93689 14.3337
RightHand  0.349141 5.56408 3.37248
LeftUpLeg  -14.9634 10.1793 -3.9743
LeftLeg  5.16853 22.1972 -5.03887
LeftFoot  -2.0344 0.554061 -6.6532
LeftToes  1.48244e-010 1.61973e-010 3.308e-011
2398
root  19.3672 39.2851 -57.8466 -0.451172 -45.0603 -2.989
RightUpLeg  16.45 -11.1498 -3.8679
RightLeg  6.40028 -27.597 4.28992
RightFoot  -14.1985 0.273227 14.7643
RightToes  7.56698e-010 0 -3.6325e-017
Spine  8.16613 0.736508 5.48501
Spine1  1.00217 2.27119 -5.62937
HEad  -20.4697 43.7028 -18.6137
LeftShoulder1  1.19195 0.438235 -32.8187
LeftArm  12.7859 7.96125 -23.4328
LeftForeArm  -2.0452 -0.174707 -19.2625
LeftHand  0.150274 1.83155 -5.32892
RightShoulder  7.29204 11.8072 41.4381
RightArm  4.13695 3.17507 12.7351
RightForeArm  11.1757 8.19027 13.9954
RightHand  0.287998 5.3916 2.78015
LeftUpLeg  -12.8465 5.77522 -5.03752
LeftLeg  1.27126 32.3532 -6.31286
LeftFoot  -0.661074 -0.443183 4.78138
LeftToes  1.48244e-010 1.61973e-010 3.308e-011
2399
root  18.3143 39.0521 -57.2155 -1.31348 -43.2793 -3.19754
RightUpLeg  18.9964 -18.9639 -6.83944
RightLeg  10.5745 -19.7172 2.53862
RightFoot  -15.379 0.532585 17.953
RightToes  7.56698e-010 0 -3.6325e-017
Spine  7.39718 0.75221 3.91508
Spine1  1.66636 2.10812 -5.05829
HEad  -19.2077 43.3419 -16.3483
LeftShoulder1  1.14947 0.52495 -32.5242
LeftArm  15.8472 9.00297 -21.232
LeftForeArm  -6.57588 0.320816 -19.818
LeftHand  0.132956 2.42591 -5.87387
RightShoulder  7.21787 11.379 42.2576
RightArm  5.45245 2.94596 12.5162
RightForeArm  9.87208 9.01294 13.7706
RightHand  0.274594 5.40207 2.63296
LeftUpLeg  -12.0351 4.1063 -6.57565
LeftLeg  3.87169 34.193 -2.73121
LeftFoot  0.948828 -1.70225 15.6511
LeftToes  1.48244e-010 1.61973e-010 3.308e-011
2400
root  17.3624 38.8423 -56.6016 -4.32129 -42.178 -1.23805
RightUpLeg  20.1823 -31.4933 -14.3391
RightLeg  20.7027 -4.00696 -1.88502
RightFoot  -15.7003 0.810745 23.8064
RightToes  7.56698e-010 0 -3.6325e-017
Spine  8.04995 1.02691 0.536896
Spine1  1.98819 2.01556 -4.73185
HEad  -19.7117 43.2145 -15.2323
LeftShoulder1  1.07575 0.719767 -32.5731
LeftArm  16.4389 9.5776 -18.9883
LeftForeArm  -8.16599 0.0458612 -19.9039
LeftHand  0.109481 2.97647 -6.26154
RightShoulder  7.38493 11.1315 44.0754
RightArm  5.60878 3.08798 12.1098
RightForeArm  10.0018 8.82109 13.9147
RightHand  0.274029 5.42874 2.61882
LeftUpLeg  -12.2686 7.11367 -8.43055
LeftLeg  12.754 30.3141 2.57483
LeftFoot  -2.28958 -1.09808 13.972
LeftToes  1.48244e-010 1.61973e-010 3.308e-011
2401
root  16.58 38.6177 -56.0379 -6.73437 -40.8424 1.62083
RightUpLeg  13.9969 -26.7139 -15.5197
RightLeg  35.0643 -4.60846 -3.71921
RightFoot  -11.7454 0.0385268 33.0161
RightToes  7.56698e-010 0 -3.6325e-017
Spine  7.9349 1.30787 -2.49951
Spine1  2.52638 2.01757 -5.57948
HEad  -19.9955 42.8662 -14.8211
LeftShoulder1  1.12781 0.603045 -32.8141
LeftArm  17.3469 9.40508 -17.4652
LeftForeArm  -8.9059 -0.162348 -19.9452
LeftHand  0.118105 2.93089 -6.54808
RightShoulder  7.44014 10.823 45.4214
RightArm  1.98183 3.0033 12.7326
RightForeArm  13.4759 6.53123 14.3909
RightHand  0.291279 5.65825 2.73178
LeftUpLeg  -12.2517 11.2967 -10.9224
LeftLeg  17.1429 25.033 4.226
LeftFoot  -4.86316 -0.679832 12.4786
LeftToes  1.48244e-010 1.61973e-010 3.308e-011
2402
root  15.9304 38.5621 -55.4198 -7.54858 -39.9362 2.57945
RightUpLeg  5.79157 -22.7431 -15.8789
RightLeg  49.522 -3.49957 -4.72895
RightFoot  0.170022 -2.90109 28.2489
RightToes  7.56698e-010 0 -3.6325e-017
Spine  7.78222 1.36842 -2.19691
Spine1  2.62668 2.39736 -7.88942
HEad  -19.8843 42.4115 -15.3544
LeftShoulder1  1.1708 0.4978 -32.8841
LeftArm  18.1755 8.67838 -17.2535
LeftForeArm  -8.63034 -0.981885 -19.8217
LeftHand  0.140427 2.59529 -6.60237
RightShoulder  7.47114 10.8832 45.4193
RightArm  1.94026 1.49434 14.5827
RightForeArm  12.734 6.14139 14.4622
RightHand  0.319026 5.56179 3.05495
LeftUpLeg  -11.1077 9.4521 -11.1892
LeftLeg  18.7648 26.5327 4.68699
LeftFoot  -6.47213 -0.49959 12.6149
LeftToes  1.48244e-010 1.61973e-010 3.308e-011
2403
root  15.3132 38.4717 -54.8804 -8.77637 -38.0699 3.61302
RightUpLeg  -1.93378 -19.5934 -16.4789
RightLeg  60.4722 -1.69171 -3.7327
RightFoot  15.7854 -3.38405 14.419
RightToes  7.56698e-010 0 -3.6325e-017
Spine  8.36357 1.25461 -3.28231
Spine1  2.77422 2.11104 -8.62526
HEad  -20.5605 41.9956 -17.7847
LeftShoulder1  1.19052 0.49533 -33.5031
LeftArm  17.2539 6.99016 -17.7668
LeftForeArm  -7.79291 -1.5141 -19.6126
LeftHand  0.154833 2.32372 -6.4961
RightShoulder  7.56127 10.9392 45.802
RightArm  4.10985 0.545226 15.7196
RightForeArm  10.4687 6.80827 14.5189
RightHand  0.454463 5.70537 4.41974
LeftUpLeg  -9.75841 8.51809 -11.9194
LeftLeg  20.6078 25.8157 5.3289
LeftFoot  -8.20077 -0.268268 11.55
LeftToes  1.48244e-010 1.61973e-010 3.308e-011
2404
root  14.6795 38.4177 -54.3686 -9.72925 -35.4816 4.00394
RightUpLeg  -6.49914 -17.3195 -17.2177
RightLeg  67.1703 -1.02618 -3.3648
RightFoot  11.8828 -3.0917 15.3663
RightToes  7.56698e-010 0 -3.6325e-017
Spine  8.74491 1.17063 -4.64798
Spine1  3.56579 1.61525 -8.41726
HEad  -20.5552 41.1863 -19.2305
LeftShoulder1  1.22555 0.440326 -33.9324
LeftArm  15.1956 4.22762 -19.783
LeftForeArm  -6.25798 -1.4421 -19.4286
LeftHand  0.139625 2.22287 -5.69197
RightShoulder  7.51126 10.5348 46.8417
RightArm  5.81811 0.480828 15.8634
RightForeArm  11.0954 6.81225 14.6763
RightHand  0.642302 6.09161 6.13983
LeftUpLeg  -8.07837 7.614 -12.3751
LeftLeg  22.0739 24.3392 5.91795
LeftFoot  -9.67575 -0.0952719 10.5384
LeftToes  1.48244e-010 1.61973e-010 3.308e-011
